<?xml version="1.0" standalone="no"?>
<!DOCTYPE svg PUBLIC "-//W3C//DTD SVG 20010904//EN"
 "http://www.w3.org/TR/2001/REC-SVG-20010904/DTD/svg10.dtd">
<svg version="1.0" xmlns="http://www.w3.org/2000/svg"
 width="700.000000pt" height="700.000000pt" viewBox="0 0 700.000000 700.000000"
 preserveAspectRatio="xMidYMid meet">
<metadata>
Created by potrace 1.11, written by Peter Selinger 2001-2013
</metadata>
<g transform="translate(0.000000,700.000000) scale(0.100000,-0.100000)"
fill="#000000" stroke="none">
<path d="M3985 5785 c-1034 -283 -1897 -519 -1917 -525 l-38 -11 0 -1529 0
-1529 -32 10 c-63 19 -224 39 -308 39 -445 0 -835 -214 -991 -545 -221 -470
116 -980 733 -1112 115 -24 381 -24 496 0 339 72 605 260 727 512 80 165 75
68 75 1589 l0 1354 33 11 c17 5 563 154 1212 331 649 176 1186 323 1193 325 9
4 12 -182 12 -905 l0 -909 -32 10 c-66 19 -225 39 -318 39 -432 0 -815 -210
-979 -538 -186 -371 7 -819 441 -1021 189 -89 314 -116 538 -116 232 0 357 28
555 125 189 92 339 237 420 405 81 168 75 -25 75 2369 0 1175 -3 2136 -7 2135
-5 0 -854 -232 -1888 -514z"/>
</g>
</svg>
